<svg xmlns="http://www.w3.org/2000/svg" xmlns:xlink="http://www.w3.org/1999/xlink" width="1920" zoomAndPan="magnify" viewBox="0 0 1440 809.999993" height="1080" preserveAspectRatio="xMidYMid meet" version="1.0"><defs><filter x="0%" y="0%" width="100%" height="100%" id="b5ca578f17"><feColorMatrix values="0 0 0 0 1 0 0 0 0 1 0 0 0 0 1 0 0 0 1 0" color-interpolation-filters="sRGB"/></filter><mask id="611ab05a16"><g filter="url(#b5ca578f17)"><rect x="-144" width="1728" fill="#000000" y="-80.999999" height="971.999992" fill-opacity="0.25"/></g></mask><clipPath id="1681fea531"><path d="M 0.480469 26 L 503 26 L 503 714.101562 L 0.480469 714.101562 Z M 0.480469 26 " clip-rule="nonzero"/></clipPath><clipPath id="2b6b85ee7a"><path d="M 301 1.601562 L 647 1.601562 L 647 104 L 301 104 Z M 301 1.601562 " clip-rule="nonzero"/></clipPath><clipPath id="cc1bfb23a9"><rect x="0" width="1440" y="0" height="715"/></clipPath></defs><rect x="-144" width="1728" fill="#ffffff" y="-80.999999" height="971.999992" fill-opacity="1"/><rect x="-144" width="1728" fill="#ffffff" y="-80.999999" height="971.999992" fill-opacity="1"/><g mask="url(#611ab05a16)"><g transform="matrix(1, 0, 0, 1, -0.000000000000000056, 47)"><g clip-path="url(#cc1bfb23a9)"><path fill="#bfdbff" d="M 1218.398438 301.363281 C 1223 302.617188 1224.394531 283.507812 1215.746094 286.160156 C 1207.097656 288.808594 1212.957031 299.828125 1218.398438 301.363281 Z M 1218.398438 301.363281 " fill-opacity="1" fill-rule="nonzero"/><path fill="#bfdbff" d="M 821.96875 17.082031 C 821.96875 17.082031 819.039062 21.128906 826.011719 21.128906 C 833.125 21.128906 847.773438 16.386719 859.488281 16.386719 C 871.207031 16.386719 867.71875 12.339844 865.347656 12.339844 C 862.976562 12.339844 856.558594 5.925781 847.214844 6.480469 C 837.867188 7.039062 838.425781 11.226562 832.566406 11.226562 C 826.710938 11.226562 827.824219 9.410156 815.550781 10.109375 C 803.273438 10.667969 815.550781 15.96875 821.96875 17.082031 Z M 821.96875 17.082031 " fill-opacity="1" fill-rule="nonzero"/><path fill="#bfdbff" d="M 1230.253906 357.4375 C 1234.160156 360.089844 1234.855469 364.691406 1234.160156 371.945312 C 1233.460938 379.199219 1226.90625 378.5 1238.066406 383.105469 C 1249.222656 387.707031 1262.476562 395.660156 1259.128906 381.152344 C 1255.78125 366.644531 1258.429688 364.691406 1246.574219 353.394531 C 1234.71875 342.234375 1234.019531 349.488281 1232.765625 340.140625 C 1231.507812 330.933594 1228.160156 313.777344 1223.558594 320.335938 C 1219.511719 326.191406 1216.304688 328.285156 1220.90625 338.1875 C 1225.652344 348.230469 1226.207031 354.789062 1230.253906 357.4375 Z M 1230.253906 357.4375 " fill-opacity="1" fill-rule="nonzero"/><path fill="#bfdbff" d="M 1344.355469 441.828125 C 1335.707031 432.625 1321.199219 425.929688 1315.34375 426.625 C 1309.34375 427.324219 1304.183594 436.527344 1300.835938 433.179688 C 1297.488281 429.832031 1287.582031 414.070312 1282.421875 418.675781 C 1277.121094 423.277344 1283.121094 428.578125 1276.425781 428.578125 C 1269.867188 428.578125 1267.914062 436.53125 1266.519531 425.929688 C 1265.265625 415.328125 1259.964844 410.027344 1258.570312 417.976562 C 1257.316406 425.929688 1256.617188 431.230469 1253.269531 425.230469 C 1249.921875 419.234375 1247.96875 423.277344 1247.96875 417.28125 C 1247.96875 411.28125 1234.71875 404.726562 1229.554688 411.28125 C 1226.207031 415.464844 1224.953125 415.886719 1223.558594 425.089844 C 1222.300781 434.296875 1218.953125 448.804688 1226.207031 444.898438 C 1233.460938 440.992188 1234.855469 444.203125 1238.066406 439.597656 C 1241.414062 434.996094 1245.320312 432.34375 1251.316406 434.996094 C 1257.316406 437.644531 1254.664062 437.644531 1265.125 436.25 C 1275.726562 434.996094 1280.886719 434.996094 1288.28125 439.597656 C 1295.535156 444.203125 1310.042969 441.550781 1310.042969 446.152344 C 1310.042969 450.757812 1294.835938 454.105469 1310.042969 458.707031 C 1325.246094 463.3125 1328.453125 473.914062 1333.195312 468.613281 C 1337.800781 463.3125 1344.355469 456.058594 1349.097656 461.359375 C 1353.703125 466.660156 1371.558594 481.167969 1368.210938 473.214844 C 1364.863281 465.265625 1365.558594 458.011719 1376.160156 449.5 C 1386.761719 440.992188 1384.109375 436.949219 1379.507812 436.949219 C 1374.90625 436.949219 1374.90625 442.945312 1364.304688 444.203125 C 1353.5625 445.875 1353.003906 451.035156 1344.355469 441.828125 Z M 1344.355469 441.828125 " fill-opacity="1" fill-rule="nonzero"/><path fill="#bfdbff" d="M 726.835938 29.636719 C 727.53125 29.777344 728.089844 29.917969 728.648438 30.054688 C 734.507812 32.425781 738.691406 28.941406 739.25 24.199219 C 745.664062 14.851562 743.292969 31.871094 750.410156 28.941406 C 757.382812 26.011719 767.425781 18.898438 775.65625 14.851562 C 783.886719 10.804688 765.613281 12.480469 750.964844 10.109375 C 736.320312 7.738281 715.675781 11.921875 709.816406 15.96875 C 704.375 19.734375 718.324219 27.125 726.835938 29.636719 Z M 726.835938 29.636719 " fill-opacity="1" fill-rule="nonzero"/><path fill="#bfdbff" d="M 1205.144531 380.453125 C 1201.101562 385.617188 1193.289062 396.914062 1187.988281 400.960938 C 1182.6875 404.863281 1173.480469 399.703125 1174.179688 408.910156 C 1174.875 418.117188 1175.433594 422.160156 1176.132812 428.71875 C 1176.828125 435.273438 1178.085938 439.320312 1187.988281 439.320312 C 1197.890625 439.320312 1202.496094 442.667969 1205.84375 441.273438 C 1209.191406 440.015625 1208.492188 434.019531 1212.398438 426.066406 C 1216.304688 418.117188 1223 420.070312 1220.351562 414.210938 C 1217.699219 408.214844 1217.699219 409.609375 1217.699219 403.609375 C 1217.699219 397.613281 1221.046875 401.65625 1219.09375 391.753906 C 1217.003906 381.847656 1209.75 374.597656 1205.144531 380.453125 Z M 1205.144531 380.453125 " fill-opacity="1" fill-rule="nonzero"/><path fill="#bfdbff" d="M 1227.742188 472.097656 C 1237.089844 473.214844 1244.203125 472.097656 1250.621094 468.613281 C 1257.035156 465.125 1254.105469 460.941406 1253.546875 459.265625 C 1252.992188 457.453125 1248.246094 461.078125 1241.832031 462.195312 C 1235.414062 463.3125 1233.601562 463.3125 1225.371094 464.007812 C 1217.140625 464.566406 1222.441406 461.078125 1213.65625 460.519531 C 1204.867188 459.964844 1196.078125 458.148438 1186.035156 454.664062 C 1175.992188 451.175781 1170.832031 448.246094 1163.71875 445.875 C 1156.601562 443.503906 1163.160156 439.457031 1162.601562 429.414062 C 1162.042969 419.371094 1155.488281 423.558594 1150.324219 420.070312 C 1145.027344 416.582031 1146.839844 408.910156 1149.210938 411.28125 C 1151.582031 413.652344 1152.140625 416.582031 1152.140625 404.167969 C 1152.140625 391.890625 1140.980469 383.664062 1134.003906 373.0625 C 1126.890625 362.460938 1128.148438 356.601562 1128.707031 351.300781 C 1129.261719 346 1141.675781 356.042969 1148.09375 363.574219 C 1154.511719 371.246094 1154.511719 371.246094 1158.136719 369.433594 C 1161.625 367.621094 1172.226562 361.761719 1174.597656 352.417969 C 1176.96875 343.070312 1155.765625 324.238281 1152.835938 315.453125 C 1149.90625 306.664062 1156.882812 311.964844 1160.507812 306.105469 C 1163.996094 300.246094 1168.179688 308.476562 1165.808594 312.523438 C 1163.4375 316.566406 1166.367188 318.9375 1168.738281 323.125 C 1171.109375 327.167969 1171.109375 323.125 1173.480469 317.824219 C 1175.851562 312.523438 1174.039062 310.710938 1178.222656 307.222656 C 1182.410156 303.734375 1198.171875 298.992188 1202.355469 294.945312 C 1206.539062 290.902344 1209.46875 286.160156 1214.632812 271.511719 C 1219.929688 256.867188 1214.074219 257.425781 1211.703125 252.125 C 1209.332031 246.824219 1202.355469 238.035156 1198.171875 232.734375 C 1194.125 227.433594 1197.613281 228.6875 1200.542969 226.875 C 1203.472656 225.0625 1201.101562 221.015625 1194.125 218.644531 C 1187.011719 216.273438 1188.265625 221.015625 1181.851562 219.761719 C 1175.433594 218.644531 1178.921875 213.902344 1185.894531 205.671875 C 1193.011719 197.445312 1189.382812 207.488281 1194.125 210.972656 C 1198.867188 214.460938 1199.984375 208.046875 1203.472656 209.859375 C 1206.960938 211.671875 1214.074219 215.160156 1219.375 222.132812 C 1224.675781 229.109375 1224.675781 237.335938 1229.976562 236.78125 C 1235.277344 236.222656 1235.277344 233.851562 1237.648438 228.550781 C 1240.019531 223.25 1231.230469 218.507812 1227.046875 214.460938 C 1222.859375 210.417969 1218.816406 210.417969 1222.304688 206.789062 C 1225.789062 203.300781 1222.859375 198 1224.675781 193.816406 C 1226.488281 189.773438 1232.902344 192.003906 1239.320312 189.074219 C 1245.738281 186.144531 1246.296875 176.101562 1246.296875 165.640625 C 1246.296875 155.039062 1240.996094 150.4375 1238.066406 146.808594 C 1235.136719 143.320312 1241.550781 144.996094 1246.851562 149.179688 C 1252.152344 153.226562 1260.382812 175.542969 1262.058594 184.472656 C 1263.871094 193.257812 1262.617188 193.257812 1269.730469 200.929688 C 1276.84375 208.601562 1274.472656 207.347656 1272.101562 216.136719 C 1269.730469 224.921875 1263.871094 227.292969 1255.082031 229.664062 C 1246.296875 232.039062 1249.222656 233.710938 1243.925781 242.636719 C 1238.625 251.425781 1246.851562 251.984375 1251.597656 254.355469 C 1256.339844 256.726562 1258.570312 247.9375 1264.570312 243.753906 C 1270.425781 239.710938 1276.84375 236.640625 1286.886719 236.640625 C 1296.929688 236.640625 1283.957031 223.109375 1283.398438 216.136719 C 1282.839844 209.160156 1282.285156 204.417969 1279.914062 199.117188 C 1277.539062 193.816406 1282.285156 193.816406 1289.257812 190.328125 C 1296.234375 186.84375 1295.675781 179.726562 1291.628906 179.726562 C 1287.585938 179.726562 1283.957031 182.65625 1274.613281 182.101562 C 1265.265625 181.542969 1267.636719 173.871094 1265.265625 170.941406 C 1262.894531 168.011719 1259.964844 161.59375 1259.40625 156.292969 C 1258.847656 150.992188 1250.621094 144.019531 1244.761719 138.71875 C 1238.902344 133.417969 1235.414062 129.929688 1235.414062 132.300781 C 1235.414062 134.671875 1231.925781 131.742188 1223.699219 131.1875 C 1215.46875 130.628906 1213.65625 132.300781 1206.679688 131.742188 C 1199.566406 131.1875 1207.238281 119.46875 1210.167969 111.238281 C 1213.097656 103.007812 1221.328125 107.75 1227.742188 107.75 C 1234.160156 107.75 1237.089844 108.308594 1246.574219 110.679688 C 1255.917969 113.050781 1251.875 104.824219 1253.6875 98.40625 C 1255.5 91.988281 1259.546875 95.476562 1264.847656 97.847656 C 1270.148438 100.21875 1271.820312 100.777344 1271.820312 95.476562 C 1271.820312 90.175781 1276.5625 89.058594 1280.609375 93.664062 C 1284.65625 98.40625 1273.496094 108.308594 1273.496094 108.308594 C 1273.496094 108.308594 1270.007812 118.910156 1276.425781 122.398438 C 1282.839844 125.886719 1295.8125 141.230469 1303.484375 146.53125 C 1311.15625 151.832031 1305.855469 137.742188 1305.855469 127.699219 C 1305.855469 117.65625 1298.882812 118.910156 1293.582031 109.566406 C 1288.28125 100.21875 1291.769531 104.265625 1301.8125 104.265625 C 1311.855469 104.265625 1312.414062 100.777344 1314.785156 97.847656 C 1317.15625 94.917969 1318.828125 94.359375 1327.757812 94.359375 C 1336.546875 94.359375 1331.246094 90.875 1327.199219 86.128906 C 1323.152344 81.386719 1314.925781 82.644531 1317.851562 79.714844 C 1320.78125 76.785156 1336.683594 81.527344 1344.21875 84.457031 C 1351.890625 87.386719 1350.074219 85.015625 1348.960938 78.039062 C 1347.84375 71.066406 1341.289062 76.226562 1322.597656 69.253906 C 1303.765625 62.277344 1283.261719 58.09375 1276.84375 58.09375 C 1270.425781 58.09375 1275.03125 54.046875 1279.773438 54.046875 C 1284.515625 54.046875 1283.261719 50.003906 1278.65625 47.632812 C 1273.914062 45.261719 1269.867188 47.074219 1268.054688 52.375 C 1266.242188 57.675781 1273.355469 58.234375 1259.824219 58.234375 C 1246.296875 58.234375 1236.390625 58.234375 1220.488281 55.304688 C 1204.585938 52.375 1198.730469 52.375 1185.199219 51.816406 C 1171.667969 51.257812 1172.921875 45.398438 1158.835938 45.398438 C 1144.746094 45.398438 1149.488281 40.097656 1143.628906 33.683594 C 1137.773438 27.265625 1134.84375 28.941406 1117.265625 28.941406 C 1099.691406 28.941406 1109.035156 35.914062 1112.523438 37.171875 C 1116.011719 38.285156 1125.496094 41.214844 1131.914062 47.214844 C 1138.328125 53.070312 1120.195312 50.699219 1112.523438 51.257812 C 1104.851562 51.816406 1105.550781 47.214844 1096.621094 41.914062 C 1087.835938 36.613281 1066.074219 39.542969 1053.800781 38.984375 C 1041.523438 38.425781 1040.828125 38.984375 1036.222656 30.195312 C 1031.480469 21.40625 1021.578125 26.148438 1008.605469 26.148438 C 995.632812 26.148438 988.65625 19.734375 982.242188 15.550781 C 975.824219 11.503906 965.78125 10.804688 951.691406 8.574219 C 937.605469 6.203125 945.277344 17.363281 950.578125 17.921875 C 950.578125 17.921875 956.433594 20.292969 962.292969 20.851562 C 968.152344 21.40625 980.566406 21.964844 986.984375 29.636719 C 993.398438 37.308594 967.035156 34.378906 955.320312 40.796875 C 943.601562 47.214844 934.117188 44.285156 926.027344 47.769531 C 917.796875 51.257812 930.070312 57.117188 933.140625 64.789062 C 936.070312 72.460938 933.140625 72.460938 927.839844 74.132812 C 922.539062 75.949219 929.652344 65.90625 927.28125 62.976562 C 924.910156 60.046875 916.121094 44.84375 909.148438 40.097656 C 902.035156 35.355469 903.289062 44.144531 904.40625 50.699219 C 905.519531 57.117188 907.335938 57.117188 909.148438 61.859375 C 910.960938 66.601562 901.476562 61.859375 896.871094 58.371094 C 892.128906 54.886719 876.925781 63.113281 869.8125 59.488281 C 862.835938 56 872.183594 57.117188 872.183594 53.628906 C 872.183594 50.140625 863.953125 53.070312 861.582031 47.769531 C 859.210938 42.46875 876.226562 36.054688 886.828125 34.242188 C 897.429688 32.425781 896.175781 32.425781 896.175781 27.265625 C 896.175781 21.964844 877.34375 23.777344 861.582031 31.3125 C 845.679688 38.984375 849.863281 44.285156 847.492188 49.445312 C 845.121094 54.746094 852.792969 55.304688 856.28125 58.234375 C 859.769531 61.164062 852.234375 62.277344 845.121094 64.648438 C 838.148438 67.019531 836.335938 64.648438 828.105469 67.578125 C 819.875 70.507812 824.617188 73.996094 817.503906 76.925781 C 810.527344 79.855469 811.085938 79.855469 805.226562 82.226562 C 799.371094 84.597656 806.34375 73.4375 814.574219 72.183594 C 822.804688 71.066406 820.433594 66.324219 818.0625 64.511719 C 815.691406 62.695312 800.484375 58.09375 784.027344 53.351562 C 767.566406 48.609375 741.203125 55.164062 732.414062 59.210938 C 723.625 63.253906 724.183594 66.324219 723.070312 72.183594 C 721.953125 78.039062 701.867188 86.828125 691.960938 92.128906 C 681.917969 97.429688 690.847656 104.402344 693.777344 109.148438 C 696.703125 113.890625 703.121094 111.519531 711.351562 109.148438 C 719.582031 106.773438 718.324219 116.820312 719.582031 120.304688 C 720.699219 123.792969 725.441406 124.351562 733.113281 120.863281 C 740.785156 117.375 738.96875 109.148438 738.96875 104.402344 C 738.96875 99.660156 737.15625 97.289062 742.457031 90.875 C 747.757812 84.457031 752.5 80.273438 757.105469 77.34375 C 761.847656 74.414062 761.148438 79.714844 754.175781 85.574219 C 747.199219 91.429688 751.804688 93.246094 755.289062 100.21875 C 758.777344 107.332031 765.890625 100.21875 774.679688 99.101562 C 783.46875 97.988281 767.007812 106.773438 760.589844 106.773438 C 754.175781 106.773438 760.589844 113.75 756.546875 113.75 C 752.5 113.75 751.804688 116.679688 751.246094 123.792969 C 750.6875 130.90625 748.316406 129.09375 743.574219 130.90625 C 738.832031 132.71875 731.855469 133.277344 724.183594 131.464844 C 716.511719 129.652344 717.210938 122.675781 711.910156 117.933594 C 706.609375 113.191406 705.492188 120.304688 705.492188 123.234375 C 705.492188 126.164062 700.191406 132.582031 697.820312 132.582031 C 695.449219 132.582031 688.476562 139.695312 684.289062 145.554688 C 680.246094 151.410156 677.316406 147.925781 676.0625 145.554688 C 674.945312 143.183594 678.988281 139.695312 676.617188 133.835938 C 674.246094 127.976562 664.902344 123.234375 667.832031 109.703125 C 670.761719 96.175781 664.34375 103.289062 654.859375 104.402344 C 645.511719 105.519531 642.582031 109.703125 641.886719 113.191406 C 641.328125 116.679688 636.027344 123.792969 630.167969 130.210938 C 624.308594 136.625 628.355469 141.925781 631.285156 149.039062 C 634.214844 156.15625 641.886719 146.667969 644.257812 140.8125 C 646.628906 134.953125 649.558594 132.023438 653.042969 134.953125 C 656.53125 137.882812 647.746094 143.183594 646.628906 150.15625 C 645.511719 157.269531 649 156.574219 657.230469 154.203125 C 665.460938 151.832031 661.273438 150.15625 667.832031 153.085938 C 674.246094 156.015625 661.972656 158.386719 654.300781 158.945312 C 646.628906 159.503906 649.558594 164.804688 656.113281 169.546875 C 662.53125 174.289062 659.601562 181.261719 655.554688 181.820312 C 651.511719 182.378906 643.839844 183.632812 632.121094 185.867188 C 620.402344 188.238281 631.003906 197.582031 628.632812 202.882812 C 626.261719 208.183594 625.703125 219.902344 631.003906 220.460938 C 636.304688 221.015625 636.304688 229.804688 633.375 232.734375 C 630.449219 235.664062 629.890625 238.59375 622.777344 243.894531 C 615.660156 249.195312 620.960938 253.9375 618.730469 260.910156 C 616.359375 267.886719 610.5 263.839844 603.527344 271.511719 C 596.550781 279.183594 593.484375 285.042969 588.320312 293.832031 C 583.019531 302.617188 582.464844 303.175781 588.878906 313.777344 C 595.296875 324.378906 588.878906 327.308594 583.578125 336.65625 C 578.277344 346 585.390625 346.699219 587.625 354.789062 C 589.996094 363.019531 594.738281 361.203125 596.410156 369.433594 C 598.226562 377.664062 600.457031 380.035156 608.6875 385.894531 C 616.917969 391.753906 625.148438 399.984375 629.191406 398.167969 C 633.238281 396.355469 639.792969 391.753906 653.324219 392.3125 C 666.855469 392.867188 662.113281 386.453125 676.199219 384.082031 C 690.289062 381.710938 682.617188 385.894531 684.429688 389.941406 C 686.242188 394.125 693.777344 398.167969 704.378906 398.726562 C 714.976562 399.285156 706.191406 412.257812 705.492188 420.488281 C 704.933594 428.71875 705.492188 428.71875 710.792969 435.691406 C 716.09375 442.667969 723.070312 458.570312 724.882812 466.796875 C 726.695312 475.027344 723.070312 484.375 718.464844 492.046875 C 713.722656 499.71875 715.535156 517.292969 725.441406 530.265625 C 735.484375 543.238281 729.484375 542.542969 729.484375 556.070312 C 729.484375 569.601562 736.597656 567.230469 741.761719 574.902344 C 747.0625 582.574219 744.691406 596.664062 749.433594 604.195312 C 754.175781 611.867188 762.40625 604.753906 771.75 601.265625 C 781.097656 597.78125 785.28125 598.894531 796.441406 590.664062 C 807.597656 582.433594 816.386719 565.976562 816.386719 561.371094 C 816.386719 556.628906 819.875 554.957031 825.734375 552.585938 C 831.589844 550.214844 830.476562 535.007812 829.777344 530.824219 C 829.21875 526.777344 830.894531 523.152344 833.265625 520.78125 C 835.636719 518.410156 850.285156 504.320312 855.585938 498.460938 C 860.882812 492.605469 856.140625 484.375 855.027344 475.027344 C 853.910156 465.683594 850.285156 462.054688 850.285156 450.898438 C 850.285156 439.738281 846.796875 440.851562 866.183594 422.71875 C 885.574219 404.585938 903.707031 375.710938 905.519531 369.296875 C 907.335938 362.878906 906.636719 357.578125 905.519531 352.835938 C 904.40625 348.09375 879.15625 357.578125 873.300781 357.578125 C 867.441406 357.578125 856.839844 344.605469 855.722656 340.003906 C 854.609375 335.257812 845.679688 330.65625 838.148438 323.542969 C 830.476562 316.566406 836.335938 306.523438 830.476562 298.851562 C 824.617188 291.179688 821.6875 280.023438 820.433594 273.605469 C 819.316406 267.1875 829.21875 278.347656 836.890625 287.136719 C 844.5625 295.921875 854.46875 312.382812 857.398438 318.242188 C 860.328125 324.101562 862.699219 332.886719 863.257812 340.003906 C 863.8125 346.976562 868.558594 348.230469 875.53125 347.675781 C 882.503906 347.117188 907.195312 334.144531 915.984375 330.097656 C 924.769531 326.054688 935.371094 313.636719 939.417969 301.921875 C 943.460938 290.203125 930.628906 291.878906 924.769531 286.019531 C 918.914062 280.160156 918.914062 286.019531 911.796875 287.832031 C 904.824219 289.644531 898.824219 280.160156 887.667969 269.699219 C 876.507812 259.097656 883.621094 262.726562 885.851562 260.355469 C 888.085938 257.980469 899.382812 265.652344 905.800781 273.324219 C 912.21875 280.996094 913.472656 278.070312 921.003906 278.070312 C 928.675781 278.070312 930.351562 281.554688 940.394531 284.484375 C 950.4375 287.414062 955.597656 283.371094 964.246094 284.207031 C 972.753906 285.042969 971.5 289.226562 977.5 298.574219 C 983.355469 307.917969 980.984375 304.992188 993.957031 306.246094 C 1006.929688 307.363281 997.445312 306.246094 997.445312 314.476562 C 997.445312 322.707031 998.5625 325.632812 1006.234375 335.679688 C 1013.90625 345.722656 1016.835938 364.414062 1019.207031 373.898438 C 1021.578125 383.242188 1026.320312 373.898438 1033.851562 373.898438 C 1041.523438 373.898438 1034.410156 380.316406 1040.269531 389.800781 C 1046.128906 399.144531 1050.3125 386.871094 1050.3125 383.382812 C 1050.3125 379.894531 1046.824219 371.109375 1043.335938 368.179688 C 1039.851562 365.25 1035.109375 365.808594 1039.152344 361.203125 C 1043.335938 356.460938 1039.710938 351.859375 1039.710938 345.304688 C 1039.710938 338.886719 1040.269531 334.144531 1043.199219 331.214844 C 1046.128906 328.285156 1056.726562 317.683594 1063.144531 310.011719 C 1069.5625 302.339844 1074.863281 301.222656 1083.648438 301.78125 C 1092.4375 302.339844 1085.464844 303.59375 1090.765625 310.570312 C 1096.066406 317.683594 1097.179688 327.585938 1103.039062 334.703125 C 1108.898438 341.816406 1109.457031 333.585938 1114.199219 331.214844 C 1118.941406 328.84375 1116.011719 338.1875 1119.5 345.304688 C 1122.984375 352.417969 1120.613281 361.761719 1120.613281 368.179688 C 1120.613281 374.597656 1128.285156 381.152344 1132.890625 387.011719 C 1137.632812 392.867188 1135.820312 395.796875 1132.890625 398.167969 C 1129.960938 400.539062 1124.101562 392.3125 1119.359375 387.566406 C 1114.617188 382.824219 1107.640625 385.753906 1112.382812 391.054688 C 1117.128906 396.355469 1120.058594 405.703125 1125.355469 415.746094 C 1130.65625 425.789062 1141.816406 437.503906 1149.488281 447.96875 C 1157.160156 458.570312 1181.710938 463.171875 1191.195312 463.171875 C 1199.566406 462.753906 1218.398438 470.984375 1227.742188 472.097656 Z M 820.292969 244.3125 C 816.804688 251.285156 814.992188 256.03125 809.691406 254.355469 C 804.390625 252.542969 786.816406 253.238281 778.027344 250.308594 C 769.238281 247.382812 756.265625 242.082031 753.894531 248.496094 C 751.523438 254.914062 759.753906 260.214844 745.109375 254.914062 C 730.460938 249.613281 714.558594 243.195312 712.886719 238.453125 C 711.074219 233.710938 718.746094 220.878906 708.144531 220.878906 C 697.542969 220.878906 682.894531 220.320312 678.152344 223.808594 C 673.410156 227.292969 655.277344 233.851562 649.417969 232.039062 C 644.117188 230.503906 635.886719 228.550781 645.371094 224.363281 C 654.71875 220.320312 665.878906 222.550781 667.132812 216.691406 C 668.25 210.835938 658.902344 209.71875 668.25 204.417969 C 677.59375 199.117188 674.109375 194.375 680.523438 191.445312 C 686.941406 188.515625 695.730469 189.074219 700.472656 187.402344 C 705.214844 185.585938 698.65625 183.914062 708.144531 189.214844 C 717.488281 194.515625 723.347656 204.417969 728.089844 205.117188 C 732.832031 205.671875 735.761719 209.160156 732.832031 211.53125 C 729.902344 213.902344 725.160156 215.578125 723.488281 215.578125 C 721.675781 215.578125 720.558594 220.320312 722.371094 220.878906 C 724.183594 221.4375 728.230469 229.109375 731.160156 226.738281 C 734.089844 224.363281 731.160156 220.878906 736.460938 219.066406 C 741.761719 217.25 747.0625 215.019531 744.691406 211.394531 C 742.316406 207.90625 739.945312 203.722656 744.691406 206.09375 C 749.433594 208.464844 753.476562 207.207031 748.175781 202.046875 C 742.875 196.746094 741.0625 196.746094 734.644531 192.003906 C 728.230469 187.261719 721.117188 184.890625 721.117188 181.402344 C 721.117188 177.914062 717.070312 171.359375 723.488281 173.730469 C 729.902344 176.101562 752.222656 188.375 752.222656 193.121094 C 752.222656 197.863281 758.082031 206.09375 752.78125 210.136719 C 747.480469 214.183594 758.082031 215.4375 760.453125 217.808594 C 762.824219 220.179688 761.566406 226.597656 768.125 225.480469 C 774.539062 224.363281 779.28125 224.921875 775.796875 218.367188 C 772.308594 211.949219 766.449219 209.019531 772.308594 206.648438 C 778.167969 204.277344 779.421875 201.347656 781.097656 211.394531 C 782.910156 221.4375 780.539062 224.921875 794.628906 225.480469 C 808.714844 226.039062 818.0625 221.992188 819.875 226.039062 C 821.410156 230.222656 823.78125 237.335938 820.292969 244.3125 Z M 843.167969 200.371094 C 833.824219 199.816406 817.921875 196.886719 810.25 196.886719 C 802.578125 196.886719 799.648438 198 799.648438 198 C 793.230469 196.886719 777.886719 200.929688 785.558594 190.886719 C 793.230469 180.84375 788.488281 168.011719 797.835938 171.5 C 807.179688 174.984375 807.878906 188.515625 813.738281 180.285156 C 819.597656 172.054688 826.011719 162.710938 827.824219 169.128906 C 829.640625 175.542969 819.597656 180.84375 831.871094 186.144531 C 844.285156 191.585938 852.515625 200.929688 843.167969 200.371094 Z M 899.523438 221.992188 C 890.734375 221.992188 880.132812 220.179688 880.132812 215.578125 L 880.132812 204.417969 C 875.390625 193.257812 869.53125 190.886719 869.53125 183.214844 C 869.53125 175.542969 874.277344 169.128906 883.621094 169.128906 C 892.96875 169.128906 897.710938 168.011719 890.597656 176.101562 C 883.621094 184.332031 877.066406 184.890625 886.550781 197.863281 C 896.035156 210.835938 908.3125 221.992188 899.523438 221.992188 Z M 899.523438 221.992188 " fill-opacity="1" fill-rule="nonzero"/><path fill="#bfdbff" d="M 1348.960938 526.917969 C 1342.960938 511.714844 1342.960938 499.859375 1339.753906 493.300781 C 1336.40625 486.746094 1339.054688 478.792969 1329.152344 478.792969 C 1325.105469 478.792969 1325.246094 481.445312 1321.898438 489.953125 C 1318.550781 498.460938 1322.597656 514.363281 1313.949219 512.410156 C 1305.4375 510.457031 1301.394531 506.414062 1299.441406 497.90625 C 1297.488281 489.394531 1302.089844 481.445312 1295.535156 481.445312 C 1288.980469 481.445312 1270.425781 476.84375 1265.824219 484.09375 C 1261.21875 491.347656 1267.078125 494 1257.316406 494 C 1247.410156 494 1243.503906 494 1238.203125 500.554688 C 1232.902344 507.109375 1225.652344 525.664062 1197.335938 526.917969 C 1169.019531 528.175781 1183.523438 543.378906 1183.523438 559.839844 C 1183.523438 576.296875 1168.320312 586.203125 1175.015625 592.199219 C 1181.570312 598.199219 1173.0625 606.007812 1186.871094 601.40625 C 1200.683594 596.804688 1213.234375 595.410156 1234.996094 592.199219 C 1256.757812 588.851562 1266.660156 587.597656 1267.359375 598.199219 C 1268.054688 608.800781 1264.707031 601.546875 1273.355469 603.5 C 1282.003906 605.453125 1272.660156 619.402344 1282.5625 620.65625 C 1292.464844 621.910156 1286.46875 629.164062 1295.117188 629.164062 C 1303.625 629.164062 1306.972656 638.371094 1299.71875 638.371094 C 1292.464844 638.371094 1281.863281 653.574219 1292.464844 648.273438 C 1303.066406 642.972656 1313.527344 641.71875 1313.527344 633.769531 C 1313.527344 625.816406 1312.273438 625.257812 1324.6875 615.355469 C 1337.242188 605.453125 1366.257812 581.738281 1364.304688 562.628906 C 1362.210938 543.519531 1354.957031 542.125 1348.960938 526.917969 Z M 1348.960938 526.917969 " fill-opacity="1" fill-rule="nonzero"/><path fill="#bfdbff" d="M 1435.441406 606.148438 C 1430.140625 603.5 1430.140625 608.101562 1426.933594 618.003906 C 1423.585938 627.910156 1407.125 631.816406 1404.476562 633.90625 C 1401.824219 635.859375 1396.527344 641.859375 1396.527344 641.859375 C 1383.972656 649.808594 1359.5625 657.761719 1365.558594 664.316406 C 1371.558594 670.871094 1375.460938 666.964844 1389.96875 659.714844 C 1404.476562 652.460938 1408.382812 643.253906 1416.332031 637.953125 C 1424.285156 632.652344 1428.886719 633.347656 1434.746094 626.792969 C 1440.742188 619.957031 1440.742188 608.800781 1435.441406 606.148438 Z M 1435.441406 606.148438 " fill-opacity="1" fill-rule="nonzero"/><g clip-path="url(#1681fea531)"><path fill="#bfdbff" d="M 494.445312 441.691406 C 483.84375 438.761719 483.285156 442.25 482.167969 436.390625 C 481.054688 430.53125 473.941406 430.53125 467.523438 430.53125 C 461.105469 430.53125 458.734375 429.972656 453.433594 425.230469 C 448.132812 420.488281 436.976562 419.929688 433.488281 418.8125 C 430 417.699219 431.675781 407.65625 424.699219 398.308594 C 417.585938 388.964844 402.941406 387.148438 393.59375 381.847656 C 384.25 376.546875 387.175781 356.042969 373.648438 357.71875 C 360.117188 359.53125 359 364.832031 346.585938 358.277344 C 334.3125 351.859375 326.082031 347.675781 319.523438 352.417969 C 313.109375 357.160156 304.878906 365.949219 300.695312 368.320312 C 296.648438 370.691406 289.535156 366.503906 285.488281 367.203125 C 281.445312 367.761719 276.703125 363.019531 273.773438 358.972656 C 270.84375 354.925781 279.074219 334.285156 271.402344 334.285156 C 263.730469 334.285156 253.824219 330.796875 253.824219 327.867188 C 253.824219 324.9375 269.726562 307.363281 264.984375 304.433594 C 260.242188 301.503906 250.894531 303.316406 242.664062 314.476562 C 234.4375 325.636719 226.765625 325.078125 222.71875 320.890625 C 218.671875 316.847656 209.1875 292.714844 216.859375 279.183594 C 224.53125 265.652344 236.808594 259.238281 246.152344 259.796875 C 255.5 260.355469 254.382812 257.425781 263.730469 256.867188 C 273.074219 256.308594 284.929688 259.238281 287.164062 262.726562 C 289.535156 266.210938 284.792969 272.070312 290.652344 279.183594 C 296.507812 286.160156 299.996094 283.230469 300.695312 286.160156 C 301.25 289.089844 295.949219 292.019531 293.71875 292.019531 C 291.347656 292.019531 271.957031 297.320312 279.628906 300.804688 C 287.300781 304.292969 300.832031 301.363281 303.761719 306.105469 C 306.691406 310.847656 294.417969 320.753906 311.992188 321.3125 C 329.566406 321.867188 341.285156 324.238281 351.328125 324.796875 C 361.371094 325.355469 368.347656 325.914062 369.460938 328.285156 C 370.578125 330.65625 377.691406 319.496094 361.230469 319.496094 C 344.773438 319.496094 331.9375 310.152344 323.011719 308.339844 C 314.222656 306.523438 308.367188 300.667969 307.808594 293.691406 C 307.25 286.578125 308.367188 281.417969 304.878906 275.558594 C 301.390625 269.699219 292.601562 255.609375 300.832031 249.753906 C 309.0625 243.894531 325.523438 232.734375 329.566406 225.0625 C 333.613281 217.390625 333.613281 215.71875 343.097656 209.859375 C 352.445312 204 363.605469 196.328125 368.902344 191.027344 C 374.203125 185.726562 382.992188 177.496094 384.804688 181.679688 C 386.621094 185.726562 394.847656 186.980469 404.753906 183.496094 C 414.796875 180.007812 427.070312 171.21875 416.46875 171.21875 C 405.867188 171.21875 399.453125 168.289062 402.382812 164.246094 C 405.3125 160.199219 395.40625 158.386719 392.339844 158.945312 C 389.410156 159.503906 389.410156 153.085938 399.453125 151.273438 C 409.496094 149.460938 401.265625 158.386719 409.496094 157.6875 C 417.726562 157.132812 423.027344 150.714844 428.886719 149.460938 C 434.742188 148.34375 437.113281 153.503906 429.441406 158.804688 C 421.769531 164.105469 419.398438 162.292969 429.441406 164.664062 C 439.484375 167.035156 442.414062 172.335938 448.273438 167.035156 C 454.132812 161.734375 447.15625 159.921875 446.460938 152.945312 C 445.902344 145.972656 447.578125 133 441.160156 128.257812 C 434.742188 123.515625 434.742188 117.65625 434.742188 113.050781 C 434.742188 108.308594 435.859375 98.40625 429.441406 103.007812 C 423.027344 107.75 417.726562 110.679688 415.355469 108.308594 C 412.984375 105.9375 416.46875 101.195312 411.308594 97.707031 C 406.007812 94.222656 405.449219 88.921875 399.035156 89.480469 C 392.617188 90.035156 386.0625 84.734375 382.574219 92.40625 C 379.085938 100.078125 375.460938 106.496094 374.34375 108.867188 C 373.226562 111.238281 378.390625 119.46875 373.785156 123.515625 C 369.042969 127.558594 356.210938 133.558594 354.398438 137.601562 C 352.585938 141.648438 345.609375 152.25 343.796875 145.273438 C 341.984375 138.300781 349.65625 127.699219 339.054688 124.769531 C 328.453125 121.839844 320.222656 124.210938 318.546875 117.796875 C 316.734375 111.378906 312.132812 105.519531 322.59375 100.21875 C 333.195312 94.917969 343.796875 85.574219 353.699219 84.316406 C 363.742188 83.203125 356.628906 91.429688 364.859375 90.734375 C 373.089844 90.175781 363.742188 85.992188 373.648438 84.316406 C 383.691406 82.503906 381.875 82.503906 378.949219 79.015625 C 376.019531 75.53125 377.832031 74.972656 385.363281 71.34375 C 393.035156 67.859375 387.175781 65.488281 394.710938 62.558594 C 402.382812 59.628906 404.054688 56.699219 408.242188 56.699219 C 412.285156 56.699219 411.726562 58.511719 409.355469 63.8125 C 406.984375 69.113281 405.3125 72.601562 412.285156 69.113281 C 419.398438 65.625 422.886719 63.253906 417.585938 68.554688 C 412.285156 73.855469 408.796875 73.855469 401.125 74.972656 C 393.453125 76.085938 395.824219 77.34375 399.3125 81.386719 C 402.800781 85.433594 411.589844 86.128906 414.515625 88.363281 C 417.445312 90.734375 420.933594 98.964844 428.046875 94.777344 C 435.023438 90.734375 429.863281 90.035156 439.207031 85.992188 C 448.554688 81.945312 462.082031 79.574219 460.96875 74.273438 C 459.851562 68.972656 450.367188 66.042969 449.25 59.628906 C 448.132812 53.210938 462.222656 49.585938 443.949219 46.65625 C 425.816406 43.726562 436.277344 41.355469 427.488281 41.355469 C 418.703125 41.355469 402.242188 41.355469 396.382812 44.285156 C 390.523438 47.214844 387.039062 42.46875 384.109375 47.214844 C 381.179688 51.957031 384.667969 58.371094 381.738281 58.371094 C 378.808594 58.371094 373.507812 63.113281 371.136719 58.371094 C 368.765625 53.628906 363.464844 49.027344 370.578125 47.214844 C 377.554688 45.398438 378.808594 46.65625 379.925781 41.355469 C 381.039062 36.054688 369.878906 36.613281 376.4375 35.496094 C 382.851562 34.378906 385.78125 36.054688 394.570312 36.054688 C 403.359375 36.054688 423.304688 39.542969 426.234375 34.242188 C 429.164062 28.941406 421.492188 28.941406 412.703125 28.382812 C 403.917969 27.824219 388.574219 24.894531 382.15625 27.824219 C 375.738281 30.753906 367.507812 35.496094 364.582031 40.097656 C 361.652344 44.84375 361.652344 38.984375 355.792969 40.097656 C 349.933594 41.214844 339.890625 47.769531 345.191406 51.257812 C 350.492188 54.746094 350.492188 58.929688 344.632812 58.929688 C 338.773438 58.929688 336.960938 64.789062 332.917969 64.789062 C 328.871094 64.789062 317.710938 64.230469 322.871094 61.300781 C 328.171875 58.371094 334.03125 58.371094 333.472656 51.257812 C 332.917969 44.144531 339.332031 41.914062 339.332031 39.542969 C 339.332031 37.171875 325.242188 44.84375 314.085938 41.355469 C 302.925781 37.867188 298.183594 32.566406 287.023438 33.125 C 275.863281 33.683594 261.21875 48.328125 268.191406 49.585938 C 275.308594 50.699219 280.46875 48.46875 281.722656 51.957031 C 282.839844 55.441406 280.605469 58.371094 284.652344 60.1875 C 288.699219 62 296.371094 66.601562 286.464844 64.230469 C 276.5625 61.859375 281.164062 57.8125 265.960938 57.117188 C 250.757812 56.558594 241.269531 51.816406 225.507812 56 C 209.605469 60.046875 211.976562 63.671875 201.378906 60.046875 C 190.777344 56.558594 168.457031 48.328125 150.882812 51.816406 C 133.304688 55.304688 111.546875 61.164062 106.246094 64.789062 C 100.945312 68.277344 111.546875 71.761719 102.199219 72.460938 C 92.855469 73.019531 70.535156 72.460938 75.140625 78.320312 C 79.882812 84.179688 85.738281 84.734375 78.625 85.992188 C 71.652344 87.105469 62.167969 87.804688 58.679688 92.964844 C 55.191406 98.265625 42.21875 101.195312 50.449219 103.566406 C 58.679688 105.9375 72.210938 111.238281 66.351562 111.796875 C 60.492188 112.355469 30.503906 124.070312 17.667969 127 C 4.695312 129.929688 -5.765625 144.019531 5.394531 139.835938 C 19.621094 134.671875 57.703125 122.816406 64.675781 119.886719 C 71.652344 116.957031 74.71875 119.328125 74.023438 123.375 C 73.464844 127.417969 82.253906 121.5625 89.226562 116.261719 C 96.203125 110.960938 96.203125 100.359375 102.199219 103.984375 C 108.058594 107.472656 111.546875 103.984375 116.289062 102.871094 C 121.03125 101.753906 125.632812 98.824219 129.820312 101.054688 C 133.863281 103.425781 144.464844 105.800781 147.394531 108.171875 C 150.324219 110.542969 151.441406 115.84375 148.511719 116.398438 C 145.582031 116.957031 145.023438 119.886719 145.582031 124.628906 C 146.140625 129.371094 148.511719 133.417969 142.652344 134.671875 C 136.792969 135.789062 137.910156 142.902344 141.535156 142.34375 C 145.023438 141.789062 147.394531 139.972656 147.953125 136.488281 C 148.511719 133 156.183594 126.445312 155.066406 131.1875 C 153.949219 135.929688 151.019531 140.53125 151.019531 144.160156 C 151.019531 147.644531 146.976562 147.089844 146.277344 150.574219 C 145.722656 154.0625 146.835938 154.0625 149.765625 156.992188 C 152.695312 159.921875 150.882812 161.734375 150.324219 168.152344 C 149.765625 174.566406 132.191406 192.28125 129.820312 198.140625 C 127.449219 204 128.703125 212.230469 128.703125 218.644531 C 128.703125 225.0625 126.332031 233.292969 132.75 235.664062 C 139.164062 238.035156 139.722656 239.152344 139.722656 245.007812 C 139.722656 250.867188 139.722656 257.980469 143.210938 262.027344 C 146.695312 266.074219 145.023438 265.515625 145.023438 272.070312 C 145.023438 278.625 149.070312 275 149.765625 280.300781 C 150.324219 285.601562 146.835938 287.972656 152.695312 292.019531 C 158.554688 296.0625 164.96875 298.992188 162.042969 292.574219 C 159.113281 286.160156 157.296875 280.859375 154.367188 271.375 C 151.441406 262.027344 149.625 245.007812 153.253906 250.171875 C 156.742188 255.472656 161.484375 271.375 166.785156 282.394531 C 172.085938 293.550781 178.5 292.4375 178.5 300.527344 C 178.5 308.757812 172.085938 316.429688 184.917969 321.730469 C 197.890625 327.03125 207.234375 338.1875 214.90625 336.933594 C 222.578125 335.816406 227.183594 331.074219 230.113281 336.375 C 233.042969 341.675781 239.457031 348.652344 246.570312 348.652344 C 253.546875 348.652344 255.917969 353.394531 257.171875 360.367188 C 258.289062 367.34375 263.03125 368.597656 270.144531 370.96875 C 277.121094 373.339844 278.933594 381.011719 284.234375 380.316406 C 289.535156 379.757812 296.507812 377.386719 296.507812 382.6875 C 296.507812 387.988281 298.878906 400.820312 290.09375 409.050781 C 281.304688 417.28125 277.121094 423.136719 281.863281 428.4375 C 286.605469 433.738281 282.421875 439.039062 280.050781 443.085938 C 277.679688 447.128906 281.863281 450.757812 286.464844 457.171875 C 291.207031 463.589844 297.625 471.261719 301.671875 484.234375 C 305.714844 497.207031 311.714844 501.808594 321.617188 505.996094 C 331.660156 510.039062 339.191406 517.15625 339.191406 527.199219 C 339.191406 537.242188 338.636719 571.277344 338.636719 581.179688 C 338.636719 591.222656 343.9375 601.128906 342.121094 608.800781 C 340.308594 616.472656 342.121094 622.886719 344.492188 625.816406 C 346.863281 628.746094 346.308594 635.164062 346.863281 641.71875 C 347.421875 648.136719 354.535156 643.53125 354.535156 649.390625 C 354.535156 655.25 351.609375 664.039062 355.09375 666.964844 C 358.582031 669.894531 351.050781 680.496094 366.8125 690.402344 C 382.714844 700.445312 383.828125 701 384.945312 702.675781 C 386.0625 704.488281 391.363281 699.1875 391.363281 702.117188 C 391.363281 705.046875 382.574219 713.835938 399.035156 713.835938 C 415.492188 713.835938 425.398438 716.207031 415.492188 708.535156 C 405.449219 700.863281 399.59375 704.488281 397.917969 696.816406 C 396.105469 689.144531 393.875 690.402344 392.617188 685.101562 C 391.5 679.800781 396.800781 677.429688 394.988281 672.128906 C 393.175781 666.828125 386.203125 666.828125 386.757812 661.527344 C 387.316406 656.226562 391.5 650.925781 392.617188 648.554688 C 393.734375 646.183594 393.734375 643.8125 390.804688 641.578125 C 387.875 639.207031 388.433594 638.648438 392.617188 637.394531 C 396.800781 636.277344 397.359375 637.953125 399.035156 632.09375 C 400.847656 626.234375 406.007812 626.792969 408.378906 625.121094 C 410.75 623.304688 418.980469 621.074219 416.050781 613.402344 C 413.121094 605.730469 407.265625 602.242188 413.679688 602.242188 C 420.097656 602.242188 426.652344 601.683594 430.699219 593.457031 C 434.742188 585.226562 433.070312 583.410156 437.8125 576.996094 C 442.554688 570.578125 443.113281 565.277344 443.113281 560.535156 C 443.113281 555.792969 440.742188 551.191406 447.160156 548.261719 C 453.574219 545.332031 474.777344 541.84375 477.707031 533.054688 C 480.636719 524.269531 483.566406 514.921875 482.449219 505.4375 C 481.332031 496.089844 480.636719 490.234375 487.191406 482.5625 C 493.609375 474.890625 501.839844 468.472656 501.839844 461.5 C 501.976562 454.523438 505.046875 444.621094 494.445312 441.691406 Z M 494.445312 441.691406 " fill-opacity="1" fill-rule="nonzero"/></g><g clip-path="url(#2b6b85ee7a)"><path fill="#bfdbff" d="M 603.109375 55.863281 C 609.523438 48.886719 607.851562 45.261719 616.636719 41.773438 C 625.425781 38.285156 623.054688 33.542969 621.9375 26.570312 C 620.824219 19.453125 621.9375 22.523438 625.425781 20.152344 C 628.914062 17.78125 634.214844 16.105469 642.445312 15.410156 C 650.671875 14.851562 643 11.921875 643 8.433594 C 643 4.949219 637.144531 5.503906 628.914062 6.621094 C 620.683594 7.738281 621.9375 6.621094 615.941406 4.25 C 610.082031 1.878906 575.488281 1.878906 566.5625 1.878906 C 557.773438 1.878906 541.871094 3.691406 533.640625 4.25 C 525.410156 4.808594 525.96875 4.25 510.207031 2.4375 C 494.304688 0.625 452.738281 1.878906 437.394531 3.554688 C 422.1875 5.367188 411.03125 7.039062 400.988281 13.597656 C 390.945312 20.011719 384.527344 17.640625 373.367188 18.898438 C 362.207031 20.011719 361.09375 20.011719 355.792969 20.011719 C 350.492188 20.011719 351.050781 17.082031 341.703125 20.570312 C 332.359375 24.058594 335.285156 26.429688 331.660156 21.6875 C 328.171875 16.945312 323.429688 21.6875 306.96875 25.730469 C 290.511719 29.777344 312.828125 34.519531 318.128906 36.332031 C 318.128906 36.332031 329.289062 35.773438 335.707031 33.960938 C 342.121094 32.148438 345.050781 36.332031 349.234375 35.078125 C 353.28125 33.960938 354.535156 29.777344 377.972656 24.476562 C 401.40625 19.175781 417.863281 23.359375 427.351562 27.40625 C 436.695312 31.449219 436.695312 29.21875 444.925781 23.917969 C 453.15625 18.617188 467.246094 14.574219 481.890625 12.203125 C 496.539062 9.828125 487.191406 15.128906 477.84375 18.617188 C 468.5 22.105469 460.269531 20.988281 461.945312 26.847656 C 463.757812 32.707031 481.890625 30.894531 487.191406 30.894531 C 492.492188 30.894531 493.050781 39.121094 493.609375 43.867188 C 494.164062 48.609375 493.050781 50.980469 494.164062 55.582031 C 495.28125 60.324219 498.210938 59.628906 493.050781 64.371094 C 487.75 69.113281 484.820312 68.414062 484.820312 76.644531 C 484.820312 84.875 488.308594 93.664062 496.539062 99.523438 C 504.765625 105.378906 509.511719 105.9375 514.113281 96.59375 C 518.855469 87.246094 530.015625 81.386719 535.875 78.457031 C 541.730469 75.53125 549.960938 78.457031 557.632812 71.484375 C 565.304688 64.511719 575.210938 67.4375 586.367188 63.8125 C 597.808594 60.605469 596.550781 62.976562 603.109375 55.863281 Z M 603.109375 55.863281 " fill-opacity="1" fill-rule="nonzero"/></g><path fill="#bfdbff" d="M 614.824219 69.390625 C 597.25 71.761719 580.789062 65.90625 583.71875 75.25 C 586.648438 84.597656 587.207031 98.683594 596.691406 95.753906 C 612.871094 90.734375 630.726562 88.082031 626.679688 80.550781 C 622.355469 72.878906 632.398438 67.019531 614.824219 69.390625 Z M 614.824219 69.390625 " fill-opacity="1" fill-rule="nonzero"/></g></g></g></svg>